<?xml version="1.0" encoding="UTF-8" standalone="no"?>
<!-- Created with Inkscape (http://www.inkscape.org/) -->

<svg
   version="1.0"
   width="25"
   height="34"
   id="svg8005"
   inkscape:version="1.2.2 (732a01da63, 2022-12-09)"
   sodipodi:docname="LSPD-Sergeant.svg"
   xmlns:inkscape="http://www.inkscape.org/namespaces/inkscape"
   xmlns:sodipodi="http://sodipodi.sourceforge.net/DTD/sodipodi-0.dtd"
   xmlns="http://www.w3.org/2000/svg"
   xmlns:svg="http://www.w3.org/2000/svg"
   xmlns:rdf="http://www.w3.org/1999/02/22-rdf-syntax-ns#"
   xmlns:cc="http://creativecommons.org/ns#"
   xmlns:dc="http://purl.org/dc/elements/1.1/">
  <sodipodi:namedview
     pagecolor="#ffffff"
     bordercolor="#666666"
     borderopacity="1"
     objecttolerance="10"
     gridtolerance="10"
     guidetolerance="10"
     inkscape:pageopacity="0"
     inkscape:pageshadow="2"
     inkscape:window-width="2560"
     inkscape:window-height="1411"
     id="namedview10"
     showgrid="false"
     fit-margin-top="0"
     fit-margin-left="0"
     fit-margin-right="0"
     fit-margin-bottom="0"
     inkscape:zoom="22.627417"
     inkscape:cx="5.590563"
     inkscape:cy="22.649514"
     inkscape:window-x="2551"
     inkscape:window-y="-9"
     inkscape:window-maximized="1"
     inkscape:current-layer="svg8005"
     inkscape:showpageshadow="2"
     inkscape:pagecheckerboard="0"
     inkscape:deskcolor="#d1d1d1" />
  <defs
     id="defs8007" />
  <metadata
     id="metadata8010">
    <rdf:RDF>
      <cc:Work
         rdf:about="">
        <dc:format>image/svg+xml</dc:format>
        <dc:type
           rdf:resource="http://purl.org/dc/dcmitype/StillImage" />
      </cc:Work>
    </rdf:RDF>
  </metadata>
  <g
     transform="matrix(0.26755853,0,0,0.26755853,-88.712295,-125.57612)"
     id="layer1">
    <path
       d="m 378.28095,470.89388 c -9.15532,25.42539 -25.55617,47.38993 -46.71875,63.40625 v 60.5625 c 17.19219,-8.40102 32.91716,-19.32094 46.71875,-32.28125 13.8016,12.96031 29.52656,23.88023 46.71875,32.28125 v -60.5625 c -21.16258,-16.01632 -37.56343,-37.98086 -46.71875,-63.40625 z"
       id="path7672"
       style="fill:#000000;fill-opacity:1;stroke:none;stroke-width:0;stroke-miterlimit:4;stroke-dasharray:none;stroke-opacity:1"
       inkscape:connector-curvature="0" />
    <path
       d="m 378.28095,487.33138 c -9.80201,19.78862 -24.02909,37.02277 -41.375,50.375 v 12.8125 c 16.36319,-11.3349 30.44222,-25.74882 41.375,-42.40625 10.93278,16.65743 25.01184,31.07135 41.375,42.40625 v -12.8125 c -17.34591,-13.35223 -31.57296,-30.58638 -41.375,-50.375 z"
       id="path7674"
       style="fill:#c9cacf;fill-opacity:1;stroke:#000000;stroke-width:0;stroke-miterlimit:4;stroke-dasharray:none;stroke-opacity:1"
       inkscape:connector-curvature="0" />
    <path
       d="m 378.28095,517.01888 c -11.28393,15.5519 -25.32034,28.98516 -41.375,39.59375 v 11.59375 c 15.63772,-9.50463 29.59998,-21.48184 41.375,-35.375 11.77503,13.89316 25.7373,25.87037 41.375,35.375 v -11.59375 c -16.05466,-10.60859 -30.09105,-24.04185 -41.375,-39.59375 z"
       id="path7676"
       style="fill:#c9cacf;fill-opacity:1;stroke:#000000;stroke-width:0;stroke-miterlimit:4;stroke-dasharray:none;stroke-opacity:1"
       inkscape:connector-curvature="0" />
    <path
       d="m 378.28095,540.89388 c -11.96861,13.16411 -25.91245,24.48212 -41.375,33.5 v 11.25 c 15.22181,-8.25758 29.1192,-18.61752 41.375,-30.65625 12.2558,12.03873 26.15321,22.39867 41.375,30.65625 v -11.25 c -15.46255,-9.01788 -29.40636,-20.33589 -41.375,-33.5 z"
       id="path7678"
       style="fill:#c9cacf;fill-opacity:1;stroke:#000000;stroke-width:0;stroke-miterlimit:4;stroke-dasharray:none;stroke-opacity:1"
       inkscape:connector-curvature="0" />
  </g>
</svg>
