<?xml version="1.0" encoding="UTF-8" standalone="no"?>
<!-- Created with Inkscape (http://www.inkscape.org/) -->

<svg
   version="1.0"
   width="25"
   height="29"
   id="svg8005"
   inkscape:version="1.2.2 (732a01da63, 2022-12-09)"
   sodipodi:docname="LSPD-Senior Officer.svg"
   xmlns:inkscape="http://www.inkscape.org/namespaces/inkscape"
   xmlns:sodipodi="http://sodipodi.sourceforge.net/DTD/sodipodi-0.dtd"
   xmlns="http://www.w3.org/2000/svg"
   xmlns:svg="http://www.w3.org/2000/svg"
   xmlns:rdf="http://www.w3.org/1999/02/22-rdf-syntax-ns#"
   xmlns:cc="http://creativecommons.org/ns#"
   xmlns:dc="http://purl.org/dc/elements/1.1/">
  <sodipodi:namedview
     pagecolor="#ffffff"
     bordercolor="#666666"
     borderopacity="1"
     objecttolerance="10"
     gridtolerance="10"
     guidetolerance="10"
     inkscape:pageopacity="0"
     inkscape:pageshadow="2"
     inkscape:window-width="2560"
     inkscape:window-height="1411"
     id="namedview10"
     showgrid="false"
     fit-margin-top="0"
     fit-margin-left="0"
     fit-margin-right="0"
     fit-margin-bottom="0"
     inkscape:zoom="45.254834"
     inkscape:cx="8.253262"
     inkscape:cy="22.218621"
     inkscape:window-x="2551"
     inkscape:window-y="-9"
     inkscape:window-maximized="1"
     inkscape:current-layer="svg8005"
     inkscape:showpageshadow="2"
     inkscape:pagecheckerboard="0"
     inkscape:deskcolor="#d1d1d1" />
  <defs
     id="defs8007" />
  <metadata
     id="metadata8010">
    <rdf:RDF>
      <cc:Work
         rdf:about="">
        <dc:format>image/svg+xml</dc:format>
        <dc:type
           rdf:resource="http://purl.org/dc/dcmitype/StillImage" />
      </cc:Work>
    </rdf:RDF>
  </metadata>
  <g
     id="layer1-7"
     transform="matrix(0.26755859,0,0,0.26755859,-88.712427,-128.1679)">
    <path
       inkscape:connector-curvature="0"
       style="fill:#000000;fill-opacity:1;stroke:none;stroke-width:0;stroke-miterlimit:4;stroke-dasharray:none;stroke-opacity:1"
       id="path7633"
       d="m 378.2814,479.08054 c -9.1553,25.42539 -25.5562,47.38993 -46.71878,63.40625 v 44.875 c 17.57618,-9.46028 33.36529,-21.81631 46.71878,-36.4375 13.3534,14.62119 29.1425,26.97722 46.7187,36.4375 v -44.875 c -21.1626,-16.01632 -37.5634,-37.98086 -46.7187,-63.40625 z" />
    <path
       inkscape:connector-curvature="0"
       style="fill:#c9cacf;fill-opacity:1;stroke:none;stroke-width:0;stroke-miterlimit:4;stroke-dasharray:none;stroke-opacity:1"
       id="path7661"
       d="m 378.2813,495.51804 c -9.802,19.78862 -24.02904,37.02277 -41.37495,50.375 v 12.8125 c 16.36319,-11.3349 30.44222,-25.74882 41.37495,-42.40625 10.9328,16.65743 25.0119,31.07135 41.3751,42.40625 v -12.8125 c -17.346,-13.35223 -31.573,-30.58638 -41.3751,-50.375 z" />
    <path
       inkscape:connector-curvature="0"
       style="fill:#c9cacf;fill-opacity:1;stroke:none;stroke-width:0;stroke-miterlimit:4;stroke-dasharray:none;stroke-opacity:1"
       id="path7659"
       d="m 378.2813,525.20554 c -11.28388,15.5519 -25.32029,28.98516 -41.37495,39.59375 v 11.59375 c 15.63772,-9.50463 29.59998,-21.48184 41.37495,-35.375 11.7751,13.89316 25.7373,25.87037 41.3751,35.375 V 564.79929 C 403.6017,554.1907 389.5653,540.75744 378.2813,525.20554 Z" />
  </g>
</svg>
